<svg width="24" height="24" viewBox="0 0 24 24" fill="none" xmlns="http://www.w3.org/2000/svg">
  <path
    d="M12 2C6.48 2 2 6.48 2 12c0 1.85.5 3.58 1.38 5.06L2 22l5.11-1.34A9.96 9.96 0 0012 22c5.52 0 10-4.48 10-10S17.52 2 12 2z"
    fill="#0a0a0a"
  />
  <path
    fill-rule="evenodd"
    clip-rule="evenodd"
    d="M16.95 14.23c-.25-.13-1.47-.72-1.69-.8-.23-.08-.39-.12-.56.12-.17.25-.64.8-.78.96-.14.18-.29.19-.54.07-.25-.12-1.05-.39-2-1.23-.74-.66-1.23-1.47-1.38-1.72-.14-.25-.02-.38.11-.51.11-.11.25-.29.37-.44.12-.15.17-.25.25-.42.08-.17.04-.31-.02-.43-.06-.12-.56-1.35-.77-1.85-.2-.49-.41-.42-.56-.43h-.48c-.17 0-.43.06-.66.31-.22.25-.87.85-.87 2.07 0 1.22.89 2.4 1.01 2.56.12.17 1.75 2.67 4.25 3.74.59.26 1.05.41 1.41.52.59.19 1.13.16 1.56.1.48-.07 1.47-.6 1.68-1.18.21-.58.21-1.08.15-1.18-.07-.1-.22-.16-.47-.27z"
    fill="#ffffff"
  />
</svg>
