<svg width="40" height="40" viewBox="0 0 40 40" fill="none" xmlns="http://www.w3.org/2000/svg">
<path d="M19.9999 21.25C26.5699 21.25 33.3116 25.5217 33.7483 34.1033C33.7651 34.4341 33.6499 34.7581 33.428 35.004C33.2061 35.2499 32.8957 35.3978 32.5649 35.415C29.0983 35.5917 13.0433 35.7 7.4366 35.415C7.10553 35.3982 6.7947 35.2506 6.57247 35.0046C6.35024 34.7586 6.23482 34.4344 6.2516 34.1033C6.68827 25.5233 13.4299 21.25 19.9999 21.25ZM19.9999 6.25C18.3423 6.25 16.7526 6.90848 15.5805 8.08058C14.4084 9.25268 13.7499 10.8424 13.7499 12.5C13.7499 14.1576 14.4084 15.7473 15.5805 16.9194C16.7526 18.0915 18.3423 18.75 19.9999 18.75C21.6575 18.75 23.2473 18.0915 24.4194 16.9194C25.5915 15.7473 26.2499 14.1576 26.2499 12.5C26.2499 10.8424 25.5915 9.25268 24.4194 8.08058C23.2473 6.90848 21.6575 6.25 19.9999 6.25Z" fill="#FF571F"/>
</svg>
